<?xml version="1.0" encoding="UTF-8"?>
<svg xmlns="http://www.w3.org/2000/svg" xmlns:xlink="http://www.w3.org/1999/xlink" width="122px" height="45px" viewBox="0 0 122 45" version="1.1">
<defs>
<clipPath id="clip1">
  <path d="M 79 2 L 106 2 L 106 28 L 79 28 Z M 79 2 "/>
</clipPath>
<clipPath id="clip2">
  <path d="M 103.828125 6.566406 C 100.035156 1.558594 92 1.21875 85.878906 5.808594 C 79.757812 10.398438 77.867188 18.179688 81.660156 23.1875 C 85.453125 28.195312 93.492188 28.535156 99.613281 23.945312 C 105.734375 19.355469 107.621094 11.574219 103.828125 6.566406 Z M 103.828125 6.566406 "/>
</clipPath>
<clipPath id="clip3">
  <path d="M 66.050781 12.394531 L 97.683594 -11.324219 L 119.570312 17.574219 L 87.9375 41.292969 Z M 66.050781 12.394531 "/>
</clipPath>
<clipPath id="clip4">
  <path d="M 103.828125 6.566406 C 100.035156 1.558594 92 1.21875 85.878906 5.808594 C 79.757812 10.398438 77.867188 18.179688 81.660156 23.1875 C 85.453125 28.195312 93.492188 28.535156 99.613281 23.945312 C 105.734375 19.355469 107.621094 11.574219 103.828125 6.566406 Z M 103.828125 6.566406 "/>
</clipPath>
<clipPath id="clip5">
  <path d="M 74.859375 14.324219 L 97.007812 -2.285156 L 110.757812 15.867188 L 88.605469 32.476562 Z M 74.859375 14.324219 "/>
</clipPath>
<clipPath id="clip6">
  <path d="M 79 2 L 106 2 L 106 28 L 79 28 Z M 79 2 "/>
</clipPath>
<clipPath id="clip7">
  <path d="M 103.828125 6.566406 C 100.035156 1.558594 92 1.21875 85.878906 5.808594 C 79.757812 10.398438 77.867188 18.179688 81.660156 23.1875 C 85.453125 28.195312 93.492188 28.535156 99.613281 23.945312 C 105.734375 19.355469 107.621094 11.574219 103.828125 6.566406 Z M 103.828125 6.566406 "/>
</clipPath>
<clipPath id="clip8">
  <path d="M 66.050781 12.394531 L 97.683594 -11.324219 L 119.570312 17.574219 L 87.9375 41.292969 Z M 66.050781 12.394531 "/>
</clipPath>
<clipPath id="clip9">
  <path d="M 103.828125 6.566406 C 100.035156 1.558594 92 1.21875 85.878906 5.808594 C 79.757812 10.398438 77.867188 18.179688 81.660156 23.1875 C 85.453125 28.195312 93.492188 28.535156 99.613281 23.945312 C 105.734375 19.355469 107.621094 11.574219 103.828125 6.566406 Z M 103.828125 6.566406 "/>
</clipPath>
<clipPath id="clip10">
  <path d="M 78.015625 25.226562 L 85.660156 -1.300781 L 107.621094 4.964844 L 99.972656 31.492188 Z M 78.015625 25.226562 "/>
</clipPath>
<clipPath id="clip11">
  <path d="M 79 2 L 106 2 L 106 28 L 79 28 Z M 79 2 "/>
</clipPath>
<clipPath id="clip12">
  <path d="M 103.828125 6.566406 C 100.035156 1.558594 92 1.21875 85.878906 5.808594 C 79.757812 10.398438 77.867188 18.179688 81.660156 23.1875 C 85.453125 28.195312 93.492188 28.535156 99.613281 23.945312 C 105.734375 19.355469 107.621094 11.574219 103.828125 6.566406 Z M 103.828125 6.566406 "/>
</clipPath>
<clipPath id="clip13">
  <path d="M 66.050781 12.394531 L 97.683594 -11.324219 L 119.570312 17.574219 L 87.9375 41.292969 Z M 66.050781 12.394531 "/>
</clipPath>
<clipPath id="clip14">
  <path d="M 103.828125 6.566406 C 100.035156 1.558594 92 1.21875 85.878906 5.808594 C 79.757812 10.398438 77.867188 18.179688 81.660156 23.1875 C 85.453125 28.195312 93.492188 28.535156 99.613281 23.945312 C 105.734375 19.355469 107.621094 11.574219 103.828125 6.566406 Z M 103.828125 6.566406 "/>
</clipPath>
<clipPath id="clip15">
  <path d="M 74.859375 14.324219 L 97.007812 -2.285156 L 110.757812 15.867188 L 88.605469 32.476562 Z M 74.859375 14.324219 "/>
</clipPath>
<clipPath id="clip16">
  <path d="M 79 2 L 106 2 L 106 28 L 79 28 Z M 79 2 "/>
</clipPath>
<clipPath id="clip17">
  <path d="M 103.828125 6.566406 C 100.035156 1.558594 92 1.21875 85.878906 5.808594 C 79.757812 10.398438 77.867188 18.179688 81.660156 23.1875 C 85.453125 28.195312 93.492188 28.535156 99.613281 23.945312 C 105.734375 19.355469 107.621094 11.574219 103.828125 6.566406 Z M 103.828125 6.566406 "/>
</clipPath>
<clipPath id="clip18">
  <path d="M 66.050781 12.394531 L 97.683594 -11.324219 L 119.570312 17.574219 L 87.9375 41.292969 Z M 66.050781 12.394531 "/>
</clipPath>
<clipPath id="clip19">
  <path d="M 103.828125 6.566406 C 100.035156 1.558594 92 1.21875 85.878906 5.808594 C 79.757812 10.398438 77.867188 18.179688 81.660156 23.1875 C 85.453125 28.195312 93.492188 28.535156 99.613281 23.945312 C 105.734375 19.355469 107.621094 11.574219 103.828125 6.566406 Z M 103.828125 6.566406 "/>
</clipPath>
<clipPath id="clip20">
  <path d="M 78.015625 25.226562 L 85.660156 -1.300781 L 107.621094 4.964844 L 99.972656 31.492188 Z M 78.015625 25.226562 "/>
</clipPath>
<clipPath id="clip21">
  <path d="M 79 2 L 106 2 L 106 28 L 79 28 Z M 79 2 "/>
</clipPath>
<clipPath id="clip22">
  <path d="M 103.828125 6.566406 C 100.035156 1.558594 92 1.21875 85.878906 5.808594 C 79.757812 10.398438 77.867188 18.179688 81.660156 23.1875 C 85.453125 28.195312 93.492188 28.535156 99.613281 23.945312 C 105.734375 19.355469 107.621094 11.574219 103.828125 6.566406 Z M 103.828125 6.566406 "/>
</clipPath>
<clipPath id="clip23">
  <path d="M 66.050781 12.394531 L 97.683594 -11.324219 L 119.570312 17.574219 L 87.9375 41.292969 Z M 66.050781 12.394531 "/>
</clipPath>
<clipPath id="clip24">
  <path d="M 103.828125 6.566406 C 100.035156 1.558594 92 1.21875 85.878906 5.808594 C 79.757812 10.398438 77.867188 18.179688 81.660156 23.1875 C 85.453125 28.195312 93.492188 28.535156 99.613281 23.945312 C 105.734375 19.355469 107.621094 11.574219 103.828125 6.566406 Z M 103.828125 6.566406 "/>
</clipPath>
<clipPath id="clip25">
  <path d="M 79 2 L 106 2 L 106 28 L 79 28 Z M 79 2 "/>
</clipPath>
<clipPath id="clip26">
  <path d="M 103.828125 6.566406 C 100.035156 1.558594 92 1.21875 85.878906 5.808594 C 79.757812 10.398438 77.867188 18.179688 81.660156 23.1875 C 85.453125 28.195312 93.492188 28.535156 99.613281 23.945312 C 105.734375 19.355469 107.621094 11.574219 103.828125 6.566406 Z M 103.828125 6.566406 "/>
</clipPath>
<clipPath id="clip27">
  <path d="M 66.050781 12.394531 L 97.683594 -11.324219 L 119.570312 17.574219 L 87.9375 41.292969 Z M 66.050781 12.394531 "/>
</clipPath>
<clipPath id="clip28">
  <path d="M 86 7 L 101 7 L 101 22 L 86 22 Z M 86 7 "/>
</clipPath>
<clipPath id="clip29">
  <path d="M 103.828125 6.566406 C 100.035156 1.558594 92 1.21875 85.878906 5.808594 C 79.757812 10.398438 77.867188 18.179688 81.660156 23.1875 C 85.453125 28.195312 93.492188 28.535156 99.613281 23.945312 C 105.734375 19.355469 107.621094 11.574219 103.828125 6.566406 Z M 103.828125 6.566406 "/>
</clipPath>
<clipPath id="clip30">
  <path d="M 66.050781 12.394531 L 97.683594 -11.324219 L 119.570312 17.574219 L 87.9375 41.292969 Z M 66.050781 12.394531 "/>
</clipPath>
</defs>
<g id="surface1">
<path style=" stroke:none;fill-rule:nonzero;fill:rgb(0%,0%,0%);fill-opacity:1;" d="M 62.984375 14.90625 L 68.777344 14.53125 C 68.910156 15.476562 69.152344 16.175781 69.546875 16.679688 C 70.1875 17.46875 71.066406 17.863281 72.234375 17.863281 C 73.09375 17.863281 73.777344 17.667969 74.238281 17.25 C 74.679688 16.921875 74.945312 16.394531 74.945312 15.847656 C 74.945312 15.320312 74.703125 14.816406 74.285156 14.488281 C 73.84375 14.09375 72.808594 13.699219 71.175781 13.347656 C 68.511719 12.757812 66.59375 11.96875 65.472656 10.960938 C 64.347656 10.015625 63.710938 8.636719 63.753906 7.167969 C 63.753906 6.160156 64.0625 5.152344 64.636719 4.316406 C 65.296875 3.375 66.199219 2.628906 67.277344 2.214844 C 68.445312 1.710938 70.074219 1.445312 72.125 1.445312 C 74.636719 1.445312 76.550781 1.90625 77.875 2.847656 C 79.195312 3.769531 79.988281 5.261719 80.230469 7.300781 L 74.503906 7.628906 C 74.351562 6.75 74.042969 6.117188 73.535156 5.699219 C 73.027344 5.28125 72.367188 5.085938 71.507812 5.085938 C 70.804688 5.085938 70.273438 5.238281 69.921875 5.523438 C 69.589844 5.785156 69.371094 6.179688 69.394531 6.621094 C 69.394531 6.949219 69.570312 7.253906 69.832031 7.453125 C 70.121094 7.714844 70.804688 7.957031 71.882812 8.175781 C 74.546875 8.746094 76.441406 9.316406 77.609375 9.90625 C 78.777344 10.5 79.613281 11.222656 80.121094 12.078125 C 80.648438 12.953125 80.914062 13.960938 80.890625 14.992188 C 80.890625 16.21875 80.539062 17.449219 79.835938 18.476562 C 79.109375 19.550781 78.09375 20.386719 76.90625 20.890625 C 75.648438 21.4375 74.0625 21.722656 72.167969 21.722656 C 68.820312 21.722656 66.507812 21.085938 65.207031 19.792969 C 63.90625 18.5 63.136719 16.878906 62.984375 14.90625 Z M 1.5 21.394531 L 1.5 1.796875 L 11.65625 1.796875 C 13.527344 1.796875 14.980469 1.949219 15.972656 2.28125 C 16.941406 2.585938 17.800781 3.222656 18.375 4.078125 C 19.011719 5.019531 19.320312 6.117188 19.296875 7.253906 C 19.363281 9.183594 18.375 11.023438 16.675781 11.988281 C 16.015625 12.363281 15.289062 12.625 14.539062 12.757812 C 15.089844 12.910156 15.640625 13.171875 16.125 13.480469 C 16.5 13.789062 16.808594 14.136719 17.097656 14.511719 C 17.425781 14.882812 17.710938 15.300781 17.953125 15.738281 L 20.90625 21.414062 L 13.988281 21.414062 L 10.730469 15.386719 C 10.3125 14.621094 9.957031 14.117188 9.628906 13.875 C 9.1875 13.566406 8.660156 13.414062 8.128906 13.414062 L 7.601562 13.414062 L 7.601562 21.371094 L 1.5 21.371094 Z M 7.601562 9.730469 L 10.179688 9.730469 C 10.730469 9.6875 11.257812 9.601562 11.785156 9.46875 C 12.183594 9.402344 12.535156 9.183594 12.777344 8.855469 C 13.371094 8.066406 13.285156 6.949219 12.558594 6.269531 C 12.160156 5.941406 11.390625 5.765625 10.289062 5.765625 L 7.601562 5.765625 Z M 0.109375 38.183594 L 5.90625 37.808594 C 6.035156 38.753906 6.28125 39.453125 6.675781 39.957031 C 7.292969 40.746094 8.195312 41.164062 9.363281 41.164062 C 10.222656 41.164062 10.90625 40.96875 11.367188 40.550781 C 11.808594 40.199219 12.074219 39.695312 12.074219 39.148438 C 12.074219 38.621094 11.832031 38.117188 11.414062 37.789062 C 10.972656 37.394531 9.9375 37 8.285156 36.648438 C 5.617188 36.058594 3.703125 35.269531 2.578125 34.257812 C 1.453125 33.316406 0.816406 31.9375 0.859375 30.46875 C 0.859375 29.460938 1.167969 28.449219 1.742188 27.617188 C 2.402344 26.675781 3.304688 25.929688 4.386719 25.515625 C 5.550781 25.007812 7.183594 24.746094 9.230469 24.746094 C 11.742188 24.746094 13.660156 25.207031 14.980469 26.148438 C 16.300781 27.09375 17.074219 28.5625 17.316406 30.597656 L 11.589844 30.929688 C 11.433594 30.050781 11.125 29.414062 10.617188 29 C 10.132812 28.582031 9.453125 28.386719 8.59375 28.40625 C 7.886719 28.40625 7.359375 28.5625 7.007812 28.867188 C 6.652344 29.128906 6.457031 29.523438 6.476562 29.964844 C 6.476562 30.292969 6.652344 30.597656 6.917969 30.796875 C 7.203125 31.058594 7.886719 31.300781 8.96875 31.519531 C 11.632812 32.089844 13.527344 32.660156 14.695312 33.25 C 15.863281 33.84375 16.699219 34.566406 17.207031 35.421875 C 17.734375 36.296875 18 37.304688 18 38.316406 C 18 39.542969 17.625 40.746094 16.941406 41.777344 C 16.214844 42.851562 15.203125 43.683594 14.011719 44.1875 C 12.757812 44.738281 11.167969 45.023438 9.273438 45.023438 C 5.925781 45.023438 3.613281 44.386719 2.3125 43.09375 C 1.015625 41.777344 0.289062 40.15625 0.109375 38.183594 Z M 0.109375 38.183594 "/>
<path style=" stroke:none;fill-rule:nonzero;fill:rgb(0%,0%,0%);fill-opacity:1;" d="M 29.410156 36.648438 L 34.742188 38.25 C 34.453125 39.585938 33.859375 40.855469 33.042969 41.976562 C 32.296875 42.960938 31.304688 43.730469 30.179688 44.234375 C 29.035156 44.738281 27.582031 45 25.820312 45 C 23.683594 45 21.921875 44.691406 20.578125 44.078125 C 19.210938 43.464844 18.042969 42.371094 17.050781 40.8125 C 16.058594 39.257812 15.574219 37.261719 15.574219 34.828125 C 15.574219 31.585938 16.433594 29.085938 18.175781 27.355469 C 19.914062 25.625 22.359375 24.746094 25.53125 24.746094 C 28.023438 24.746094 29.960938 25.25 31.394531 26.238281 C 32.800781 27.246094 33.859375 28.78125 34.566406 30.839844 L 29.191406 32.023438 C 29.058594 31.5625 28.859375 31.101562 28.59375 30.707031 C 28.265625 30.25 27.847656 29.898438 27.339844 29.632812 C 26.832031 29.371094 26.261719 29.261719 25.6875 29.261719 C 24.300781 29.261719 23.242188 29.808594 22.515625 30.929688 C 21.964844 31.738281 21.679688 33.03125 21.679688 34.785156 C 21.679688 36.957031 22.007812 38.445312 22.667969 39.257812 C 23.328125 40.066406 24.253906 40.460938 25.46875 40.460938 C 26.632812 40.460938 27.515625 40.132812 28.109375 39.5 C 28.707031 38.820312 29.144531 37.875 29.410156 36.648438 Z M 41.855469 25.074219 L 47.9375 25.074219 L 47.9375 31.9375 L 54.589844 31.9375 L 54.589844 25.074219 L 60.714844 25.074219 L 60.714844 44.671875 L 54.589844 44.671875 L 54.589844 36.738281 L 47.9375 36.738281 L 47.9375 44.671875 L 41.855469 44.671875 Z M 41.855469 25.074219 "/>
<path style=" stroke:none;fill-rule:nonzero;fill:rgb(0%,0%,0%);fill-opacity:1;" d="M 59.875 34.875 C 59.875 31.671875 60.78125 29.175781 62.5625 27.398438 C 64.347656 25.625 66.859375 24.726562 70.054688 24.726562 C 73.335938 24.726562 75.847656 25.601562 77.632812 27.355469 C 79.417969 29.109375 80.296875 31.5625 80.296875 34.71875 C 80.296875 37.019531 79.902344 38.882812 79.128906 40.351562 C 78.382812 41.800781 77.214844 42.984375 75.78125 43.773438 C 74.304688 44.582031 72.476562 45 70.296875 45 C 68.070312 45 66.242188 44.648438 64.789062 43.949219 C 63.292969 43.203125 62.058594 42.039062 61.242188 40.617188 C 60.339844 39.082031 59.875 37.175781 59.875 34.875 Z M 65.957031 34.894531 C 65.957031 36.867188 66.332031 38.292969 67.058594 39.167969 C 67.785156 40.023438 68.796875 40.460938 70.074219 40.460938 C 71.375 40.460938 72.390625 40.046875 73.117188 39.191406 C 73.84375 38.335938 74.195312 36.824219 74.195312 34.632812 C 74.195312 32.792969 73.820312 31.433594 73.070312 30.597656 C 72.324219 29.746094 71.308594 29.328125 70.03125 29.328125 C 68.910156 29.285156 67.828125 29.765625 67.078125 30.621094 C 66.332031 31.476562 65.957031 32.902344 65.957031 34.894531 Z M 86.53125 34.875 C 86.53125 31.671875 87.433594 29.175781 89.21875 27.398438 C 91.003906 25.625 93.515625 24.726562 96.710938 24.726562 C 99.992188 24.726562 102.523438 25.601562 104.289062 27.355469 C 106.050781 29.109375 106.953125 31.5625 106.953125 34.71875 C 106.953125 37.019531 106.554688 38.882812 105.785156 40.351562 C 105.035156 41.800781 103.867188 42.984375 102.4375 43.773438 C 100.960938 44.582031 99.132812 45 96.953125 45 C 94.726562 45 92.898438 44.648438 91.445312 43.949219 C 89.945312 43.203125 88.710938 42.039062 87.898438 40.617188 C 86.996094 39.082031 86.53125 37.175781 86.53125 34.875 Z M 92.613281 34.894531 C 92.613281 36.867188 92.988281 38.292969 93.714844 39.167969 C 94.441406 40.023438 95.453125 40.460938 96.730469 40.460938 C 98.03125 40.460938 99.042969 40.046875 99.769531 39.191406 C 100.5 38.335938 100.851562 36.824219 100.851562 34.632812 C 100.851562 32.792969 100.476562 31.433594 99.726562 30.597656 C 98.976562 29.746094 97.964844 29.328125 96.6875 29.328125 C 95.5625 29.285156 94.460938 29.765625 93.734375 30.621094 C 92.988281 31.476562 92.613281 32.902344 92.613281 34.894531 Z M 92.613281 34.894531 "/>
<path style=" stroke:none;fill-rule:nonzero;fill:rgb(0%,0%,0%);fill-opacity:1;" d="M 106.3125 25.074219 L 112.394531 25.074219 L 112.394531 39.847656 L 121.890625 39.847656 L 121.890625 44.671875 L 106.292969 44.671875 L 106.292969 25.074219 Z M 106.3125 25.074219 "/>
<path style=" stroke:none;fill-rule:nonzero;fill:rgb(100%,100%,100%);fill-opacity:1;" d="M 103.828125 6.566406 C 100.035156 1.558594 92 1.21875 85.878906 5.808594 C 79.757812 10.398438 77.867188 18.179688 81.660156 23.1875 C 85.453125 28.195312 93.492188 28.535156 99.613281 23.945312 C 105.734375 19.355469 107.621094 11.574219 103.828125 6.566406 Z M 103.828125 6.566406 "/>
<g clip-path="url(#clip1)" clip-rule="nonzero">
<g clip-path="url(#clip2)" clip-rule="nonzero">
<path style=" stroke:none;fill-rule:nonzero;fill:rgb(100%,100%,100%);fill-opacity:1;" d="M 66.050781 12.394531 L 97.683594 -11.324219 L 119.570312 17.574219 L 87.9375 41.292969 Z M 66.050781 12.394531 "/>
<g clip-path="url(#clip3)" clip-rule="nonzero">
<path style=" stroke:none;fill-rule:nonzero;fill:rgb(100%,100%,100%);fill-opacity:1;" d="M 103.828125 6.566406 C 100.035156 1.558594 92 1.21875 85.878906 5.808594 C 79.757812 10.398438 77.867188 18.179688 81.660156 23.1875 C 85.453125 28.195312 93.492188 28.535156 99.613281 23.945312 C 105.734375 19.355469 107.621094 11.574219 103.828125 6.566406 Z M 103.828125 6.566406 "/>
<g clip-path="url(#clip4)" clip-rule="nonzero">
<path style=" stroke:none;fill-rule:nonzero;fill:rgb(100%,100%,100%);fill-opacity:1;" d="M 74.859375 14.324219 L 97.007812 -2.285156 L 110.757812 15.867188 L 88.605469 32.476562 Z M 74.859375 14.324219 "/>
<g clip-path="url(#clip5)" clip-rule="nonzero">
<path style="fill-rule:nonzero;fill:rgb(100%,100%,100%);fill-opacity:1;stroke-width:4;stroke-linecap:butt;stroke-linejoin:miter;stroke:rgb(0%,0%,0%);stroke-opacity:1;stroke-miterlimit:10;" d="M 483.497564 67.899078 C 483.496773 39.290871 455.300067 16.100967 420.507069 16.101535 C 385.714071 16.102102 357.495196 39.288022 357.495986 67.896229 C 357.496777 96.504436 385.707645 119.705012 420.500643 119.704444 C 455.293641 119.703877 483.498355 96.507285 483.497564 67.899078 Z M 483.497564 67.899078 " transform="matrix(0.175931,-0.131916,0.132578,0.175052,9.763937,58.461497)"/>
</g>
</g>
</g>
</g>
</g>
<g clip-path="url(#clip6)" clip-rule="nonzero">
<g clip-path="url(#clip7)" clip-rule="nonzero">
<g clip-path="url(#clip8)" clip-rule="nonzero">
<g clip-path="url(#clip9)" clip-rule="nonzero">
<g clip-path="url(#clip10)" clip-rule="nonzero">
<path style="fill:none;stroke-width:4;stroke-linecap:butt;stroke-linejoin:miter;stroke:rgb(0%,0%,0%);stroke-opacity:1;stroke-miterlimit:10;" d="M 357.799111 17.006143 L 483.697707 16.996134 L 483.706835 120.69866 L 357.794078 120.697998 Z M 357.799111 17.006143 " transform="matrix(0.175933,-0.131913,0.132575,0.175054,9.655976,58.545469)"/>
</g>
</g>
</g>
</g>
</g>
<g clip-path="url(#clip11)" clip-rule="nonzero">
<g clip-path="url(#clip12)" clip-rule="nonzero">
<g clip-path="url(#clip13)" clip-rule="nonzero">
<g clip-path="url(#clip14)" clip-rule="nonzero">
<path style="fill:none;stroke-width:4;stroke-linecap:butt;stroke-linejoin:miter;stroke:rgb(0%,0%,0%);stroke-opacity:1;stroke-miterlimit:10;" d="M 483.497564 67.899078 C 483.496773 39.290871 455.300067 16.100967 420.507069 16.101535 C 385.714071 16.102102 357.495196 39.288022 357.495986 67.896229 C 357.496777 96.504436 385.707645 119.705012 420.500643 119.704444 C 455.293641 119.703877 483.498355 96.507285 483.497564 67.899078 Z M 483.497564 67.899078 " transform="matrix(0.175931,-0.131916,0.132578,0.175052,9.763937,58.461497)"/>
<path style=" stroke:none;fill-rule:nonzero;fill:rgb(100%,100%,100%);fill-opacity:1;" d="M 74.859375 14.324219 L 97.007812 -2.285156 L 110.757812 15.867188 L 88.605469 32.476562 Z M 74.859375 14.324219 "/>
<g clip-path="url(#clip15)" clip-rule="nonzero">
<path style="fill-rule:nonzero;fill:rgb(100%,100%,100%);fill-opacity:1;stroke-width:4;stroke-linecap:butt;stroke-linejoin:miter;stroke:rgb(0%,0%,0%);stroke-opacity:1;stroke-miterlimit:10;" d="M 483.497564 67.899078 C 483.496773 39.290871 455.300067 16.100967 420.507069 16.101535 C 385.714071 16.102102 357.495196 39.288022 357.495986 67.896229 C 357.496777 96.504436 385.707645 119.705012 420.500643 119.704444 C 455.293641 119.703877 483.498355 96.507285 483.497564 67.899078 Z M 483.497564 67.899078 " transform="matrix(0.175931,-0.131916,0.132578,0.175052,9.763937,58.461497)"/>
</g>
</g>
</g>
</g>
</g>
<g clip-path="url(#clip16)" clip-rule="nonzero">
<g clip-path="url(#clip17)" clip-rule="nonzero">
<g clip-path="url(#clip18)" clip-rule="nonzero">
<g clip-path="url(#clip19)" clip-rule="nonzero">
<g clip-path="url(#clip20)" clip-rule="nonzero">
<path style="fill:none;stroke-width:4;stroke-linecap:butt;stroke-linejoin:miter;stroke:rgb(0%,0%,0%);stroke-opacity:1;stroke-miterlimit:10;" d="M 357.799111 17.006143 L 483.697707 16.996134 L 483.706835 120.69866 L 357.794078 120.697998 Z M 357.799111 17.006143 " transform="matrix(0.175933,-0.131913,0.132575,0.175054,9.655976,58.545469)"/>
</g>
</g>
</g>
</g>
</g>
<g clip-path="url(#clip21)" clip-rule="nonzero">
<g clip-path="url(#clip22)" clip-rule="nonzero">
<g clip-path="url(#clip23)" clip-rule="nonzero">
<g clip-path="url(#clip24)" clip-rule="nonzero">
<path style="fill:none;stroke-width:4;stroke-linecap:butt;stroke-linejoin:miter;stroke:rgb(0%,0%,0%);stroke-opacity:1;stroke-miterlimit:10;" d="M 330.898576 -14.193515 L 510.700875 -14.193487 L 510.700888 150.891628 L 330.898589 150.8916 Z M 330.898576 -14.193515 " transform="matrix(0.175931,-0.131916,0.132578,0.175052,9.717198,58.529865)"/>
</g>
</g>
</g>
</g>
<g clip-path="url(#clip25)" clip-rule="nonzero">
<g clip-path="url(#clip26)" clip-rule="nonzero">
<g clip-path="url(#clip27)" clip-rule="nonzero">
<path style="fill:none;stroke-width:4;stroke-linecap:butt;stroke-linejoin:miter;stroke:rgb(0%,0%,0%);stroke-opacity:1;stroke-miterlimit:10;" d="M 483.497564 67.899078 C 483.496773 39.290871 455.300067 16.100967 420.507069 16.101535 C 385.714071 16.102102 357.495196 39.288022 357.495986 67.896229 C 357.496777 96.504436 385.707645 119.705012 420.500643 119.704444 C 455.293641 119.703877 483.498355 96.507285 483.497564 67.899078 Z M 483.497564 67.899078 " transform="matrix(0.175931,-0.131916,0.132578,0.175052,9.763937,58.461497)"/>
</g>
</g>
</g>
<g clip-path="url(#clip28)" clip-rule="nonzero">
<g clip-path="url(#clip29)" clip-rule="nonzero">
<g clip-path="url(#clip30)" clip-rule="nonzero">
<path style=" stroke:none;fill-rule:nonzero;fill:rgb(0%,0%,0%);fill-opacity:1;" d="M 86.554688 13.4375 L 88.757812 11.902344 L 91.464844 15.738281 C 91.929688 16.351562 92.28125 17.007812 92.546875 17.734375 C 92.699219 18.28125 92.65625 18.871094 92.4375 19.398438 C 92.148438 20.054688 91.6875 20.605469 91.070312 21 C 90.34375 21.503906 89.726562 21.789062 89.199219 21.875 C 88.691406 21.964844 88.160156 21.875 87.675781 21.65625 C 87.148438 21.394531 86.6875 21.019531 86.332031 20.539062 L 88.226562 18.785156 C 88.382812 19.027344 88.582031 19.246094 88.800781 19.421875 C 88.957031 19.53125 89.132812 19.597656 89.328125 19.597656 C 89.484375 19.597656 89.636719 19.53125 89.75 19.441406 C 89.96875 19.3125 90.121094 19.046875 90.101562 18.785156 C 90.035156 18.410156 89.878906 18.039062 89.636719 17.753906 Z M 93.164062 15.871094 L 95.167969 14.292969 C 95.386719 14.554688 95.675781 14.75 95.984375 14.859375 C 96.421875 14.992188 96.886719 14.90625 97.261719 14.621094 C 97.523438 14.445312 97.746094 14.203125 97.832031 13.898438 C 97.964844 13.503906 97.746094 13.0625 97.347656 12.933594 C 97.28125 12.910156 97.214844 12.886719 97.148438 12.886719 C 96.886719 12.867188 96.421875 12.976562 95.738281 13.261719 C 94.617188 13.722656 93.734375 13.898438 93.074219 13.832031 C 92.4375 13.765625 91.839844 13.4375 91.488281 12.886719 C 91.222656 12.515625 91.09375 12.078125 91.070312 11.640625 C 91.070312 11.136719 91.203125 10.628906 91.488281 10.214844 C 91.90625 9.621094 92.414062 9.117188 93.03125 8.722656 C 93.957031 8.089844 94.769531 7.78125 95.476562 7.78125 C 96.179688 7.78125 96.839844 8.109375 97.457031 8.789062 L 95.476562 10.347656 C 95.078125 9.839844 94.332031 9.730469 93.824219 10.125 L 93.757812 10.191406 C 93.539062 10.324219 93.382812 10.519531 93.292969 10.761719 C 93.230469 10.9375 93.273438 11.136719 93.382812 11.289062 C 93.472656 11.398438 93.601562 11.484375 93.757812 11.484375 C 93.933594 11.507812 94.242188 11.417969 94.683594 11.222656 C 95.785156 10.761719 96.621094 10.5 97.195312 10.410156 C 97.679688 10.324219 98.183594 10.367188 98.648438 10.566406 C 99.066406 10.742188 99.417969 11.046875 99.660156 11.417969 C 99.96875 11.859375 100.144531 12.382812 100.167969 12.933594 C 100.191406 13.503906 100.035156 14.050781 99.726562 14.53125 C 99.332031 15.125 98.824219 15.628906 98.230469 16.023438 C 97.019531 16.855469 96.027344 17.207031 95.234375 17.074219 C 94.375 16.945312 93.667969 16.503906 93.164062 15.871094 Z M 93.164062 15.871094 "/>
</g>
</g>
</g>
</g>
</svg>
